<svg height="512" viewBox="0 0 192 192" width="512" xmlns="http://www.w3.org/2000/svg" xmlns:xlink="http://www.w3.org/1999/xlink"><linearGradient id="New_Gradient_Swatch_1" gradientUnits="userSpaceOnUse" x1="71.037" x2="120.963" y1="120.963" y2="71.037"><stop offset="0" stop-color="#ff85a6"/><stop offset="1" stop-color="#ffdc68"/></linearGradient><g id="_14-biilard" data-name="14-biilard"><g id="Flat"><circle cx="96" cy="96" fill="#ffdc68" r="96"/><path d="m120 168a95.95 95.95 0 0 1 -78.786-150.786 95.97 95.97 0 1 0 133.572 133.572 95.457 95.457 0 0 1 -54.786 17.214z" fill="#ffd342"/><circle cx="96" cy="96" fill="#fff6d9" r="64"/><path d="m120 80a24 24 0 1 0 -41.869 16 24 24 0 1 0 35.738 0 23.9 23.9 0 0 0 6.131-16zm-24-8a8 8 0 1 1 -8 8 8.009 8.009 0 0 1 8-8zm0 48a8 8 0 1 1 8-8 8.009 8.009 0 0 1 -8 8z" fill="url(#New_Gradient_Swatch_1)"/></g></g></svg>