<svg height="496pt" viewBox="0 0 496 496" width="496pt" xmlns="http://www.w3.org/2000/svg"><path d="m472 32h-84.175781c-12.929688-19.28125-34.921875-32-59.824219-32s-46.894531 12.71875-59.824219 32h-244.175781c-13.230469 0-24 10.769531-24 24v240c0 10.519531 6.847656 19.382812 16.296875 22.617188l8.054687 177.382812h47.289063l8-176h204.71875l-4.359375 144c0 17.648438 14.351562 32 32 32s32-14.351562 32-32.238281l-4.359375-143.761719h76.710937l8 176h47.289063l8.0625-177.382812c9.449219-3.234376 16.296875-12.097657 16.296875-22.617188v-240c0-13.230469-10.769531-24-24-24zm8 24v8h-16v-16h8c4.40625 0 8 3.585938 8 8zm-183.023438 376h30.054688l.488281 16h-31.023437zm.480469-16 6.054688-199.769531c.144531-4.613281 3.863281-8.230469 8.488281-8.230469s8.34375 3.617188 8.488281 8.230469l6.054688 199.769531zm39.023438-200.246094c-.402344-13.320312-11.152344-23.753906-24.480469-23.753906s-24.078125 10.433594-24.480469 23.753906l-1.703125 56.246094h-237.816406v-192h208.472656c4 35.945312 34.535156 64 71.527344 64s67.535156-28.054688 71.527344-64h48.472656v192h-109.816406zm-304.480469 56.246094h-16v-192h16zm432-192h16v192h-16zm-16-32v16h-48.472656c-.617188-5.558594-1.917969-10.894531-3.726563-16zm-120-32c30.878906 0 56 25.128906 56 56s-25.121094 56-56 56-56-25.128906-56-56 25.121094-56 56-56zm-71.527344 48h-208.472656v-16h212.199219c-1.816407 5.105469-3.109375 10.441406-3.726563 16zm-232.472656-16h8v16h-16v-8c0-4.414062 3.59375-8 8-8zm-8 240h16v16h-8c-4.40625 0-8-3.585938-8-8zm40.351562 192h-16.703124l-7.273438-160h31.257812zm-8.351562-176v-16h237.328125l-.488281 16zm264 176c-8.824219 0-16-7.175781-16-15.761719v-.238281h32c0 8.824219-7.175781 16-16 16zm26.671875-192h109.328125v16h-108.847656zm100.976563 192-7.273438-160h31.257812l-7.273437 160zm32.351562-176h-8v-16h16v8c0 4.414062-3.59375 8-8 8zm0 0"/><path d="m112 120c0-13.230469-10.769531-24-24-24s-24 10.769531-24 24 10.769531 24 24 24 24-10.769531 24-24zm-24 8c-4.40625 0-8-3.585938-8-8s3.59375-8 8-8 8 3.585938 8 8-3.59375 8-8 8zm0 0"/><path d="m128 208c-13.230469 0-24 10.769531-24 24s10.769531 24 24 24 24-10.769531 24-24-10.769531-24-24-24zm0 32c-4.40625 0-8-3.585938-8-8s3.59375-8 8-8 8 3.585938 8 8-3.59375 8-8 8zm0 0"/><path d="m192 160c-13.230469 0-24 10.769531-24 24s10.769531 24 24 24 24-10.769531 24-24-10.769531-24-24-24zm0 32c-4.40625 0-8-3.585938-8-8s3.59375-8 8-8 8 3.585938 8 8-3.59375 8-8 8zm0 0"/><path d="m408 208c-13.230469 0-24 10.769531-24 24s10.769531 24 24 24 24-10.769531 24-24-10.769531-24-24-24zm0 32c-4.40625 0-8-3.585938-8-8s3.59375-8 8-8 8 3.585938 8 8-3.59375 8-8 8zm0 0"/><path d="m328 112c22.054688 0 40-17.945312 40-40s-17.945312-40-40-40-40 17.945312-40 40 17.945312 40 40 40zm0-64c13.230469 0 24 10.769531 24 24s-10.769531 24-24 24-24-10.769531-24-24 10.769531-24 24-24zm0 0"/></svg>